<?xml version="1.0" encoding="UTF-8"?>
<!DOCTYPE score-partwise PUBLIC "-//Recordare//DTD MusicXML 3.1 Partwise//EN" "http://www.musicxml.org/dtds/partwise.dtd">
<score-partwise version="3.1">
  <work>
    <work-title>Ultimate Adaptive Musical Cryptography</work-title>
  </work>
  <identification>
    <creator type="composer">Enki Ultimate Adaptive Engine</creator>
    <rights>© 2025 Jeremy Amell - Revolutionary Patent Pending</rights>
  </identification>
  <part-list>
    <score-part id="P1">
      <part-name>Adaptive Encrypted Composition</part-name>
    </score-part>
  </part-list>
  <part id="P1">
    <measure number="1">
      <attributes>
        <divisions>4</divisions>
        <key><fifths>0</fifths></key>
        <time><beats>4</beats><beat-type>4</beat-type></time>
        <clef><sign>G</sign><line>2</line></clef>
      </attributes>
      <note>
        <pitch>
          <step>F</step>
          <octave>4</octave>
        </pitch>
        <duration>8</duration>
        <type>half</type>
        <dot/>
        <notations>
          <dynamics>
            <pp/>
          </dynamics>
        </notations>
      </note>
      <note>
        <pitch>
          <step>F</step>
          <octave>12</octave>
        </pitch>
        <duration>0</duration>
        <type>five-hundred-twelfth</type>
        <dot/>
        <notations>
          <dynamics>
            <fff/>
          </dynamics>
        </notations>
      </note>
      <note>
        <pitch>
          <step>G</step>
          <octave>5</octave>
        </pitch>
        <duration>4</duration>
        <type>quarter</type>
        <dot/>
        <notations>
          <dynamics>
            <ppp/>
          </dynamics>
        </notations>
      </note>
      <note>
        <pitch>
          <step>A</step>
          <octave>7</octave>
        </pitch>
        <duration>1</duration>
        <type>sixteenth</type>
        <dot/>
      </note>
    </measure>
    <measure number="2">
      <note>
        <pitch>
          <step>F</step>
          <octave>3</octave>
        </pitch>
        <duration>16</duration>
        <type>whole</type>
        <dot/>
        <notations>
          <dynamics>
            <ppp/>
          </dynamics>
        </notations>
      </note>
      <note>
        <pitch>
          <step>F</step>
          <octave>4</octave>
        </pitch>
        <duration>8</duration>
        <type>half</type>
        <dot/>
        <notations>
          <dynamics>
            <pp/>
          </dynamics>
        </notations>
      </note>
      <note>
        <pitch>
          <step>G</step>
          <octave>4</octave>
        </pitch>
        <duration>8</duration>
        <type>half</type>
        <notations>
          <dynamics>
            <pp/>
          </dynamics>
        </notations>
      </note>
      <note>
        <pitch>
          <step>G</step>
          <octave>4</octave>
        </pitch>
        <duration>8</duration>
        <type>half</type>
        <notations>
          <dynamics>
            <pp/>
          </dynamics>
        </notations>
      </note>
    </measure>
    <measure number="3">
      <note>
        <pitch>
          <step>D</step>
          <octave>10</octave>
        </pitch>
        <duration>0</duration>
        <type>hundred-twenty-eighth</type>
        <dot/>
        <notations>
          <dynamics>
            <f/>
          </dynamics>
        </notations>
      </note>
      <note>
        <pitch>
          <step>B</step>
          <octave>9</octave>
        </pitch>
        <duration>0</duration>
        <type>sixty-fourth</type>
        <dot/>
        <notations>
          <dynamics>
            <ff/>
          </dynamics>
        </notations>
      </note>
      <note>
        <pitch>
          <step>D</step>
          <octave>10</octave>
        </pitch>
        <duration>0</duration>
        <type>hundred-twenty-eighth</type>
        <dot/>
        <notations>
          <dynamics>
            <f/>
          </dynamics>
        </notations>
      </note>
      <note>
        <pitch>
          <step>C</step>
          <octave>8</octave>
        </pitch>
        <duration>0</duration>
        <type>thirty-second</type>
        <notations>
          <dynamics>
            <mp/>
          </dynamics>
        </notations>
      </note>
    </measure>
    <measure number="4">
      <note>
        <pitch>
          <step>G</step>
          <octave>5</octave>
        </pitch>
        <duration>4</duration>
        <type>quarter</type>
        <dot/>
        <notations>
          <dynamics>
            <p/>
          </dynamics>
        </notations>
      </note>
      <note>
        <pitch>
          <step>B</step>
          <octave>9</octave>
        </pitch>
        <duration>0</duration>
        <type>sixty-fourth</type>
        <dot/>
        <notations>
          <dynamics>
            <ff/>
          </dynamics>
        </notations>
      </note>
      <note>
        <pitch>
          <step>C</step>
          <octave>8</octave>
        </pitch>
        <duration>0</duration>
        <type>thirty-second</type>
        <notations>
          <dynamics>
            <mp/>
          </dynamics>
        </notations>
      </note>
      <note>
        <pitch>
          <step>D</step>
          <octave>11</octave>
        </pitch>
        <duration>0</duration>
        <type>two-hundred-fifty-sixth</type>
        <notations>
          <dynamics>
            <ff/>
          </dynamics>
        </notations>
      </note>
    </measure>
    <measure number="5">
      <note>
        <pitch>
          <step>E</step>
          <octave>12</octave>
        </pitch>
        <duration>0</duration>
        <type>five-hundred-twelfth</type>
        <notations>
          <dynamics>
            <fff/>
          </dynamics>
        </notations>
      </note>
      <note>
        <pitch>
          <step>G</step>
          <octave>5</octave>
        </pitch>
        <duration>4</duration>
        <type>quarter</type>
        <dot/>
        <notations>
          <dynamics>
            <p/>
          </dynamics>
        </notations>
      </note>
      <note>
        <pitch>
          <step>G</step>
          <octave>5</octave>
        </pitch>
        <duration>4</duration>
        <type>quarter</type>
        <dot/>
        <notations>
          <dynamics>
            <ppp/>
          </dynamics>
        </notations>
      </note>
      <note>
        <pitch>
          <step>B</step>
          <octave>9</octave>
        </pitch>
        <duration>0</duration>
        <type>sixty-fourth</type>
        <dot/>
        <notations>
          <dynamics>
            <ff/>
          </dynamics>
        </notations>
      </note>
    </measure>
    <measure number="6">
      <note>
        <pitch>
          <step>F</step>
          <octave>3</octave>
        </pitch>
        <duration>16</duration>
        <type>whole</type>
        <dot/>
        <notations>
          <dynamics>
            <ppp/>
          </dynamics>
        </notations>
      </note>
      <note>
        <pitch>
          <step>E</step>
          <alter>-1</alter>
          <octave>4</octave>
        </pitch>
        <duration>8</duration>
        <type>half</type>
        <notations>
          <dynamics>
            <mp/>
          </dynamics>
        </notations>
      </note>
      <note>
        <pitch>
          <step>C</step>
          <alter>-1</alter>
          <octave>10</octave>
        </pitch>
        <duration>0</duration>
        <type>hundred-twenty-eighth</type>
        <dot/>
        <notations>
          <dynamics>
            <fff/>
          </dynamics>
        </notations>
      </note>
      <note>
        <pitch>
          <step>F</step>
          <octave>3</octave>
        </pitch>
        <duration>16</duration>
        <type>whole</type>
        <notations>
          <dynamics>
            <ppp/>
          </dynamics>
        </notations>
      </note>
    </measure>
    <measure number="7">
      <note>
        <pitch>
          <step>G</step>
          <octave>5</octave>
        </pitch>
        <duration>4</duration>
        <type>quarter</type>
        <dot/>
        <notations>
          <dynamics>
            <p/>
          </dynamics>
        </notations>
      </note>
      <note>
        <pitch>
          <step>A</step>
          <octave>7</octave>
        </pitch>
        <duration>1</duration>
        <type>sixteenth</type>
        <dot/>
      </note>
      <note>
        <pitch>
          <step>G</step>
          <octave>5</octave>
        </pitch>
        <duration>4</duration>
        <type>quarter</type>
        <dot/>
        <notations>
          <dynamics>
            <ppp/>
          </dynamics>
        </notations>
      </note>
      <note>
        <pitch>
          <step>D</step>
          <octave>11</octave>
        </pitch>
        <duration>0</duration>
        <type>two-hundred-fifty-sixth</type>
        <notations>
          <dynamics>
            <ff/>
          </dynamics>
        </notations>
      </note>
    </measure>
    <measure number="8">
      <note>
        <pitch>
          <step>A</step>
          <octave>6</octave>
        </pitch>
        <duration>2</duration>
        <type>eighth</type>
        <dot/>
        <notations>
          <dynamics>
            <pp/>
          </dynamics>
        </notations>
      </note>
      <note>
        <pitch>
          <step>C</step>
          <octave>8</octave>
        </pitch>
        <duration>0</duration>
        <type>thirty-second</type>
        <notations>
          <dynamics>
            <mp/>
          </dynamics>
        </notations>
      </note>
      <note>
        <pitch>
          <step>D</step>
          <octave>10</octave>
        </pitch>
        <duration>0</duration>
        <type>hundred-twenty-eighth</type>
        <dot/>
        <notations>
          <dynamics>
            <f/>
          </dynamics>
        </notations>
      </note>
      <note>
        <pitch>
          <step>E</step>
          <alter>-1</alter>
          <octave>4</octave>
        </pitch>
        <duration>8</duration>
        <type>half</type>
        <notations>
          <dynamics>
            <mp/>
          </dynamics>
        </notations>
      </note>
    </measure>
    <measure number="9">
      <note>
        <pitch>
          <step>C</step>
          <octave>8</octave>
        </pitch>
        <duration>0</duration>
        <type>thirty-second</type>
        <notations>
          <dynamics>
            <mp/>
          </dynamics>
        </notations>
      </note>
      <note>
        <pitch>
          <step>A</step>
          <octave>7</octave>
        </pitch>
        <duration>1</duration>
        <type>sixteenth</type>
        <notations>
          <dynamics>
            <p/>
          </dynamics>
        </notations>
      </note>
      <note>
        <pitch>
          <step>C</step>
          <octave>8</octave>
        </pitch>
        <duration>0</duration>
        <type>thirty-second</type>
        <notations>
          <dynamics>
            <mp/>
          </dynamics>
        </notations>
      </note>
      <note>
        <pitch>
          <step>D</step>
          <octave>10</octave>
        </pitch>
        <duration>0</duration>
        <type>hundred-twenty-eighth</type>
        <dot/>
        <notations>
          <dynamics>
            <f/>
          </dynamics>
        </notations>
      </note>
    </measure>
    <measure number="10">
      <note>
        <pitch>
          <step>D</step>
          <octave>10</octave>
        </pitch>
        <duration>0</duration>
        <type>hundred-twenty-eighth</type>
        <dot/>
        <notations>
          <dynamics>
            <f/>
          </dynamics>
        </notations>
      </note>
      <note>
        <pitch>
          <step>A</step>
          <octave>6</octave>
        </pitch>
        <duration>2</duration>
        <type>eighth</type>
        <notations>
          <dynamics>
            <pp/>
          </dynamics>
        </notations>
      </note>
      <note>
        <pitch>
          <step>A</step>
          <octave>8</octave>
        </pitch>
        <duration>0</duration>
        <type>thirty-second</type>
        <dot/>
        <notations>
          <dynamics>
            <f/>
          </dynamics>
        </notations>
      </note>
      <note>
        <pitch>
          <step>E</step>
          <octave>12</octave>
        </pitch>
        <duration>0</duration>
        <type>five-hundred-twelfth</type>
        <notations>
          <dynamics>
            <fff/>
          </dynamics>
        </notations>
      </note>
    </measure>
    <measure number="11">
      <note>
        <pitch>
          <step>F</step>
          <octave>4</octave>
        </pitch>
        <duration>8</duration>
        <type>half</type>
        <dot/>
        <notations>
          <dynamics>
            <pp/>
          </dynamics>
        </notations>
      </note>
      <note>
        <pitch>
          <step>E</step>
          <octave>12</octave>
        </pitch>
        <duration>0</duration>
        <type>five-hundred-twelfth</type>
        <notations>
          <dynamics>
            <fff/>
          </dynamics>
        </notations>
      </note>
      <note>
        <pitch>
          <step>F</step>
          <octave>12</octave>
        </pitch>
        <duration>0</duration>
        <type>five-hundred-twelfth</type>
        <dot/>
        <notations>
          <dynamics>
            <fff/>
          </dynamics>
        </notations>
      </note>
      <note>
        <pitch>
          <step>D</step>
          <alter>-1</alter>
          <octave>12</octave>
        </pitch>
        <duration>0</duration>
        <type>five-hundred-twelfth</type>
        <dot/>
        <notations>
          <dynamics>
            <pp/>
          </dynamics>
        </notations>
      </note>
    </measure>
    <measure number="12">
      <note>
        <pitch>
          <step>G</step>
          <octave>5</octave>
        </pitch>
        <duration>4</duration>
        <type>quarter</type>
        <dot/>
        <notations>
          <dynamics>
            <ppp/>
          </dynamics>
        </notations>
      </note>
      <note>
        <pitch>
          <step>G</step>
          <octave>5</octave>
        </pitch>
        <duration>4</duration>
        <type>quarter</type>
        <dot/>
        <notations>
          <dynamics>
            <ppp/>
          </dynamics>
        </notations>
      </note>
      <note>
        <pitch>
          <step>C</step>
          <alter>-1</alter>
          <octave>11</octave>
        </pitch>
        <duration>0</duration>
        <type>two-hundred-fifty-sixth</type>
        <dot/>
        <notations>
          <dynamics>
            <ppp/>
          </dynamics>
        </notations>
      </note>
      <note>
        <pitch>
          <step>F</step>
          <octave>4</octave>
        </pitch>
        <duration>8</duration>
        <type>half</type>
        <dot/>
        <notations>
          <dynamics>
            <pp/>
          </dynamics>
        </notations>
      </note>
    </measure>
    <measure number="13">
      <note>
        <pitch>
          <step>A</step>
          <octave>7</octave>
        </pitch>
        <duration>1</duration>
        <type>sixteenth</type>
        <dot/>
      </note>
      <note>
        <pitch>
          <step>B</step>
          <octave>9</octave>
        </pitch>
        <duration>0</duration>
        <type>sixty-fourth</type>
        <dot/>
        <notations>
          <dynamics>
            <ff/>
          </dynamics>
        </notations>
      </note>
      <note>
        <pitch>
          <step>C</step>
          <alter>-1</alter>
          <octave>11</octave>
        </pitch>
        <duration>0</duration>
        <type>two-hundred-fifty-sixth</type>
        <dot/>
        <notations>
          <dynamics>
            <ppp/>
          </dynamics>
        </notations>
      </note>
      <note>
        <pitch>
          <step>A</step>
          <octave>7</octave>
        </pitch>
        <duration>1</duration>
        <type>sixteenth</type>
        <dot/>
      </note>
    </measure>
    <measure number="14">
      <note>
        <pitch>
          <step>G</step>
          <octave>5</octave>
        </pitch>
        <duration>4</duration>
        <type>quarter</type>
        <dot/>
        <notations>
          <dynamics>
            <ppp/>
          </dynamics>
        </notations>
      </note>
      <note>
        <pitch>
          <step>C</step>
          <alter>-1</alter>
          <octave>5</octave>
        </pitch>
        <duration>4</duration>
        <type>quarter</type>
        <notations>
          <dynamics>
            <ff/>
          </dynamics>
        </notations>
      </note>
      <note>
        <pitch>
          <step>E</step>
          <alter>-1</alter>
          <octave>4</octave>
        </pitch>
        <duration>8</duration>
        <type>half</type>
        <notations>
          <dynamics>
            <mp/>
          </dynamics>
        </notations>
      </note>
      <note>
        <pitch>
          <step>G</step>
          <octave>5</octave>
        </pitch>
        <duration>4</duration>
        <type>quarter</type>
        <dot/>
        <notations>
          <dynamics>
            <p/>
          </dynamics>
        </notations>
      </note>
    </measure>
    <measure number="15">
      <note>
        <pitch>
          <step>F</step>
          <octave>3</octave>
        </pitch>
        <duration>16</duration>
        <type>whole</type>
        <notations>
          <dynamics>
            <ppp/>
          </dynamics>
        </notations>
      </note>
      <note>
        <pitch>
          <step>F</step>
          <alter>-1</alter>
          <octave>5</octave>
        </pitch>
        <duration>4</duration>
        <type>quarter</type>
      </note>
      <note>
        <pitch>
          <step>G</step>
          <octave>5</octave>
        </pitch>
        <duration>4</duration>
        <type>quarter</type>
        <dot/>
        <notations>
          <dynamics>
            <p/>
          </dynamics>
        </notations>
      </note>
      <note>
        <pitch>
          <step>A</step>
          <octave>7</octave>
        </pitch>
        <duration>1</duration>
        <type>sixteenth</type>
        <notations>
          <dynamics>
            <p/>
          </dynamics>
        </notations>
      </note>
    </measure>
    <measure number="16">
      <note>
        <pitch>
          <step>F</step>
          <octave>3</octave>
        </pitch>
        <duration>16</duration>
        <type>whole</type>
        <notations>
          <dynamics>
            <ppp/>
          </dynamics>
        </notations>
      </note>
      <note>
        <pitch>
          <step>D</step>
          <octave>10</octave>
        </pitch>
        <duration>0</duration>
        <type>hundred-twenty-eighth</type>
        <dot/>
        <notations>
          <dynamics>
            <f/>
          </dynamics>
        </notations>
      </note>
      <note>
        <pitch>
          <step>D</step>
          <octave>10</octave>
        </pitch>
        <duration>0</duration>
        <type>hundred-twenty-eighth</type>
        <dot/>
        <notations>
          <dynamics>
            <f/>
          </dynamics>
        </notations>
      </note>
      <note>
        <pitch>
          <step>C</step>
          <alter>-1</alter>
          <octave>10</octave>
        </pitch>
        <duration>0</duration>
        <type>hundred-twenty-eighth</type>
        <dot/>
        <notations>
          <dynamics>
            <fff/>
          </dynamics>
        </notations>
      </note>
    </measure>
    <measure number="17">
      <note>
        <pitch>
          <step>C</step>
          <octave>8</octave>
        </pitch>
        <duration>0</duration>
        <type>thirty-second</type>
        <notations>
          <dynamics>
            <mp/>
          </dynamics>
        </notations>
      </note>
      <note>
        <pitch>
          <step>F</step>
          <octave>3</octave>
        </pitch>
        <duration>16</duration>
        <type>whole</type>
        <dot/>
        <notations>
          <dynamics>
            <ppp/>
          </dynamics>
        </notations>
      </note>
      <note>
        <pitch>
          <step>A</step>
          <octave>6</octave>
        </pitch>
        <duration>2</duration>
        <type>eighth</type>
        <notations>
          <dynamics>
            <pp/>
          </dynamics>
        </notations>
      </note>
      <note>
        <pitch>
          <step>G</step>
          <octave>4</octave>
        </pitch>
        <duration>8</duration>
        <type>half</type>
        <notations>
          <dynamics>
            <pp/>
          </dynamics>
        </notations>
      </note>
    </measure>
  </part>
</score-partwise>